<?xml version="1.0" encoding="UTF-8" standalone="no" ?>
<!DOCTYPE svg PUBLIC "-//W3C//DTD SVG 1.1//EN" "http://www.w3.org/Graphics/SVG/1.1/DTD/svg11.dtd">
<svg xmlns="http://www.w3.org/2000/svg" xmlns:xlink="http://www.w3.org/1999/xlink" version="1.1" width="500" height="500" viewBox="0 0 500 500" xml:space="preserve">
<desc>Created with Fabric.js 4.6.0</desc>
<defs>
</defs>
<g transform="matrix(1.24 0 0 1.24 249.81 250)" id="j-C4oU6oIEJklf1zpnSOT"  >
<path style="stroke: none; stroke-width: 1; stroke-dasharray: none; stroke-linecap: butt; stroke-dashoffset: 0; stroke-linejoin: miter; stroke-miterlimit: 4; fill: rgb(244,88,88); fill-rule: nonzero; opacity: 1;" vector-effect="non-scaling-stroke"  transform=" translate(-376.3, -280)" d="M 437.5 367.5 L 437.5 455 C 437.5 459.6406 435.6562 464.0938 432.375 467.375 C 429.0938 470.6562 424.6406 472.5 420 472.5 L 280 472.5 C 276.1523 472.539062 272.4023 471.3086 269.324 469 L 181.824 402.5 C 177.48420000000002 399.1602 174.95680000000002 393.9766 174.99980000000002 388.5 L 174.99980000000002 105 C 174.99980000000002 100.3594 176.8436 95.9062 180.12480000000002 92.625 C 183.40600000000003 89.3438 187.85920000000002 87.5 192.49980000000002 87.5 L 419.99980000000005 87.5 C 424.64040000000006 87.5 429.09360000000004 89.3438 432.37480000000005 92.625 C 435.65600000000006 95.9062 437.49980000000005 100.3594 437.49980000000005 105 L 437.49980000000005 192.5 C 437.49980000000005 198.7539 434.16390000000007 204.531 428.74980000000005 207.656 C 423.33570000000003 210.781 416.66380000000004 210.781 411.24980000000005 207.656 C 405.83580000000006 204.531 402.49980000000005 198.7537 402.49980000000005 192.5 L 402.49980000000005 122.5 L 209.99980000000005 122.5 L 209.99980000000005 379.75 L 285.94880000000006 437.5 L 402.4988000000001 437.5 L 402.4988000000001 367.5 C 402.4988000000001 361.2461 405.83470000000005 355.469 411.2488000000001 352.344 C 416.6629000000001 349.219 423.3348000000001 349.219 428.7488000000001 352.344 C 434.16280000000006 355.469 437.4988000000001 361.2463 437.4988000000001 367.5 z M 572.4300000000001 267.574 L 519.9300000000001 215.074 C 515.4886 210.6365 509.02000000000004 208.90210000000002 502.95700000000005 210.52710000000002 C 496.89060000000006 212.15210000000002 492.15600000000006 216.8865 490.53100000000006 222.9531 C 488.90600000000006 229.0156 490.64038000000005 235.4841 495.07790000000006 239.92610000000002 L 517.8279 262.50010000000003 L 315.0079 262.50010000000003 C 308.754 262.50010000000003 302.9769 265.836 299.8519 271.25010000000003 C 296.7269 276.66420000000005 296.7269 283.33610000000004 299.8519 288.75010000000003 C 302.9769 294.1641 308.7542 297.50010000000003 315.0079 297.50010000000003 L 517.8279 297.50010000000003 L 495.0779 320.07410000000004 C 491.7654 323.3593 489.9021 327.8319 489.9021 332.50010000000003 C 489.9021 337.16830000000004 491.7654 341.64070000000004 495.0779 344.9261 C 498.3631 348.2386 502.8357 350.1019 507.5039 350.1019 C 512.1721 350.1019 516.6445 348.2386 519.9299 344.9261 L 572.4299 292.4261 C 575.7424 289.14090000000004 577.6057 284.66830000000004 577.6057 280.00010000000003 C 577.6057 275.3319 575.7424 270.8595 572.4299 267.57410000000004 z" stroke-linecap="round" />
</g>
</svg>